<?xml version="1.0" encoding="UTF-8" standalone="no"?>
<!DOCTYPE svg PUBLIC "-//W3C//DTD SVG 1.1//EN" "http://www.w3.org/Graphics/SVG/1.1/DTD/svg11.dtd">
<svg width="100%" height="100%" viewBox="0 0 800 800" version="1.1" xmlns="http://www.w3.org/2000/svg" xmlns:xlink="http://www.w3.org/1999/xlink" xml:space="preserve" xmlns:serif="http://www.serif.com/" style="fill-rule:evenodd;clip-rule:evenodd;stroke-linecap:round;stroke-linejoin:round;">
    <g transform="matrix(33.3333,0,0,33.3333,0,0)">
        <path d="M11,16C11,15.068 11,14.602 11.152,14.235C11.355,13.745 11.745,13.355 12.235,13.152C12.602,13 13.068,13 14,13L16.8,13C17.92,13 18.48,13 18.908,12.782C19.284,12.59 19.59,12.284 19.782,11.908C20,11.48 20,10.92 20,9.8L20,9.2C20,8.08 20,7.52 19.782,7.092C19.59,6.716 19.284,6.41 18.908,6.218C18.48,6 17.92,6 16.8,6" style="fill:none;fill-rule:nonzero;stroke:black;stroke-width:2px;"/>
    </g>
    <g transform="matrix(33.3333,0,0,33.3333,0,0)">
        <path d="M10.6,21L11.4,21C11.96,21 12.24,21 12.454,20.891C12.642,20.795 12.795,20.642 12.891,20.454C13,20.24 13,19.96 13,19.4L13,17.6C13,17.04 13,16.76 12.891,16.546C12.795,16.358 12.642,16.205 12.454,16.109C12.24,16 11.96,16 11.4,16L10.6,16C10.04,16 9.76,16 9.546,16.109C9.358,16.205 9.205,16.358 9.109,16.546C9,16.76 9,17.04 9,17.6L9,19.4C9,19.96 9,20.24 9.109,20.454C9.205,20.642 9.358,20.795 9.546,20.891C9.76,21 10.04,21 10.6,21Z" style="fill:none;fill-rule:nonzero;stroke:black;stroke-width:2px;"/>
    </g>
    <g transform="matrix(33.3333,0,0,33.3333,0,0)">
        <path d="M16,6C16,6.932 16,7.398 15.848,7.765C15.645,8.255 15.255,8.645 14.765,8.848C14.398,9 13.932,9 13,9L7,9C6.068,9 5.602,9 5.235,8.848C4.745,8.645 4.355,8.255 4.152,7.765C4,7.398 4,6.932 4,6C4,5.068 4,4.602 4.152,4.235C4.355,3.745 4.745,3.355 5.235,3.152C5.602,3 6.068,3 7,3L13,3C13.932,3 14.398,3 14.765,3.152C15.255,3.355 15.645,3.745 15.848,4.235C16,4.602 16,5.068 16,6Z" style="fill:rgb(26,188,156);fill-rule:nonzero;stroke:rgb(26,188,156);stroke-width:2px;"/>
    </g>
</svg>
